<?xml version="1.0" encoding="UTF-8" standalone="no"?>
<!-- Created with Inkscape (http://www.inkscape.org/) -->

<svg
   xmlns:dc="http://purl.org/dc/elements/1.1/"
   xmlns:cc="http://creativecommons.org/ns#"
   xmlns:rdf="http://www.w3.org/1999/02/22-rdf-syntax-ns#"
   xmlns:svg="http://www.w3.org/2000/svg"
   xmlns="http://www.w3.org/2000/svg"
   xmlns:sodipodi="http://sodipodi.sourceforge.net/DTD/sodipodi-0.dtd"
   xmlns:inkscape="http://www.inkscape.org/namespaces/inkscape"
   width="151.62036mm"
   height="177.91838mm"
   viewBox="0 0 151.62036 177.91838"
   version="1.1"
   id="svg8"
   inkscape:version="0.92.2 (5c3e80d, 2017-08-06)"
   sodipodi:docname="Dragon_Piece.svg">
  <defs
     id="defs2">
    <clipPath
       id="clipPath26"
       clipPathUnits="userSpaceOnUse">
      <path
         inkscape:connector-curvature="0"
         id="path24"
         d="M 0,800 H 800 V 0 H 0 Z" />
    </clipPath>
  </defs>
  <sodipodi:namedview
     id="base"
     pagecolor="#ffffff"
     bordercolor="#666666"
     borderopacity="1.0"
     inkscape:pageopacity="0.0"
     inkscape:pageshadow="2"
     inkscape:zoom="0.49497475"
     inkscape:cx="-64.722551"
     inkscape:cy="39.543754"
     inkscape:document-units="mm"
     inkscape:current-layer="g156"
     showgrid="false"
     fit-margin-top="0"
     fit-margin-left="0"
     fit-margin-right="0"
     fit-margin-bottom="0"
     inkscape:window-width="1920"
     inkscape:window-height="1058"
     inkscape:window-x="-8"
     inkscape:window-y="-8"
     inkscape:window-maximized="1" />
  <metadata
     id="metadata5">
    <rdf:RDF>
      <cc:Work
         rdf:about="">
        <dc:format>image/svg+xml</dc:format>
        <dc:type
           rdf:resource="http://purl.org/dc/dcmitype/StillImage" />
        <dc:title></dc:title>
      </cc:Work>
    </rdf:RDF>
  </metadata>
  <g
     inkscape:label="Layer 1"
     inkscape:groupmode="layer"
     id="layer1"
     transform="translate(-34.558865,-33.923979)">
    <g
       transform="matrix(0.35277777,0,0,-0.35277777,-30.741888,272.08284)"
       inkscape:label="dragon 01"
       id="g18">
      <g
         id="g20">
        <g
           clip-path="url(#clipPath26)"
           id="g22">
          <g
             transform="translate(360.7905,500.811)"
             id="g156">
            <path
               inkscape:connector-curvature="0"
               id="path158"
               style="fill:#1d1d1b;fill-opacity:1;fill-rule:nonzero;stroke:none"
               d="m 0,0 -9.608,1.176 7.38,4.105 c 0,0 -0.03,11.787 16.302,9.757 C 30.406,13.008 28.503,5.183 36.586,8.191 36.586,8.191 25.38,-2.721 0,0 m 173.651,30.277 c -40.956,3.293 -52.412,8.275 -52.412,8.275 18.89,5.903 24.744,1.518 60.258,5.104 63.462,6.408 72.607,46.736 72.607,46.736 -12.35,-16.045 -55.535,-22.915 -88.002,-20.575 -32.469,2.339 -72.017,-5.291 -72.017,-5.291 12.124,9.663 37.354,10.706 51.357,12.612 29.767,4.051 59.017,17.051 80.267,47.051 17.282,24.397 7.683,50.096 7.683,50.096 C 231.254,163.773 208.709,111.189 135.626,101.82 84.374,95.249 42.728,73.971 42.728,73.971 c 0,0 10.035,10.035 25.384,24.202 15.347,14.167 58.647,30.595 58.647,30.595 C 79.152,125.715 26.2,94.041 5.55,74.539 -15.098,55.037 -49.36,47.445 -49.36,47.445 c 8.776,1.338 14.391,0 14.391,0 2.584,-27.707 -17.932,-33.572 -17.932,-33.572 -73.199,-28.22 -80.872,-47.929 -80.872,-47.929 -3.5,15.934 9.896,23.857 9.896,23.857 -24.691,-5.009 -35.886,-41.482 -35.886,-41.482 -12.412,12.481 -15.923,8.77 -15.923,8.77 11.807,-17.118 21.417,-62.396 21.417,-62.396 3.118,19.655 24.277,21.587 24.277,21.587 v -14.089 c 9.685,5.904 18.429,21.746 18.429,21.746 l 1.402,-16.434 c 12.35,6.011 14.987,20.857 14.987,20.857 l -0.022,-15.644 c 10.584,3.855 16.529,21.25 16.529,21.25 l -1.387,-14.322 c 13.128,7.762 14.789,18.16 14.789,18.16 -1.181,-7.674 0.765,-14.463 0.765,-14.463 16.55,24.302 35.211,27.255 35.211,27.255 38.96,-10.625 24.958,-42.289 24.958,-42.289 -32.891,7.886 -56.244,-4.935 -56.244,-4.935 l -1.181,11.215 c -10.859,-6.478 -18.07,-17.318 -18.07,-17.318 l -3.272,11.951 c -5.764,-3.195 -15.847,-16.473 -15.847,-16.473 l -2.952,10.625 c -9.445,-5.903 -17.119,-21.25 -17.119,-21.25 l -1.771,12.395 c -24.8,-29.367 -11.008,-46.736 -11.008,-46.736 -3.333,12.886 5.068,22.086 5.068,22.086 0,0 4.169,-8.997 18.336,-14.901 14.168,-5.902 15.515,-24.027 15.515,-24.027 7.84,14.934 -5.073,29.714 -5.073,29.714 9.259,-2.578 64.929,15.763 111.752,20.877 46.823,5.115 49.023,-16.581 49.023,-16.581 60.807,36.65 27.572,101.534 27.572,101.534 0,0 30.251,-14.115 21.986,-58.98 -8.263,-44.863 -49.585,-55.488 -49.585,-55.488 -8.855,-13.577 -8.264,-12.986 -82.643,-57.261 -74.379,-44.272 -56.624,-124.661 -56.624,-124.661 86.004974,0 178.45362,-0.29765 213.70682,-0.0358 12.61435,0.0937 6.11099,38.88986 -1.80802,57.39018 -25.4616,59.48317 39.5262,108.03866 39.5262,108.03866 5.313,-21.251 22.91688,-36.96219 22.91688,-36.96219 -16.03146,74.33063 8.36912,103.07719 8.36912,103.07719 17.119,-30.696 7.72,-85.111 7.72,-85.111 61.439,132.711 -39.596,185.463 -39.596,185.463 32.466,0.59 69.112,-37.875 69.112,-37.875 -14.121,48.9 -45.468,64.24 -69.828,66.199"
               sodipodi:nodetypes="cccsccccscccccccccccccccccccccccccccccccccccccccccccccccccccssccccccc" />
          </g>
        </g>
      </g>
    </g>
  </g>
</svg>
